<?xml version="1.0" encoding="utf-8" standalone="no"?>
<!DOCTYPE svg PUBLIC "-//W3C//DTD SVG 1.1//EN"
  "http://www.w3.org/Graphics/SVG/1.1/DTD/svg11.dtd">
<svg xmlns:xlink="http://www.w3.org/1999/xlink" width="264.314297pt" height="135.928pt" viewBox="0 0 264.314297 135.928" xmlns="http://www.w3.org/2000/svg" version="1.1">
 <metadata>
  <rdf:RDF xmlns:dc="http://purl.org/dc/elements/1.1/" xmlns:cc="http://creativecommons.org/ns#" xmlns:rdf="http://www.w3.org/1999/02/22-rdf-syntax-ns#">
   <cc:Work>
    <dc:type rdf:resource="http://purl.org/dc/dcmitype/StillImage"/>
    <dc:date>2026-09-29T04:36:36.022666</dc:date>
    <dc:format>image/svg+xml</dc:format>
    <dc:creator>
     <cc:Agent>
      <dc:title>Matplotlib v3.11.2, https://matplotlib.org/</dc:title>
     </cc:Agent>
    </dc:creator>
   </cc:Work>
  </rdf:RDF>
 </metadata>
 <defs>
  <style type="text/css">*{stroke-linejoin: round; stroke-linecap: butt}</style>
 </defs>
 <g id="figure_1">
  <g id="patch_1">
   <path d="M 0 135.928 
L 264.314297 135.928 
L 264.314297 0 
L 0 0 
L 0 135.928 
z
" style="fill: none"/>
  </g>
  <g id="axes_1">
   <g id="patch_2">
    <path d="M 80.084297 97.128 
L 261.434297 97.128 
L 261.434297 2.88 
L 80.084297 2.88 
L 80.084297 97.128 
z
" style="fill: none"/>
   </g>
   <g id="matplotlib.axis_1">
    <g id="xtick_1">
     <g id="line2d_1">
      <path d="M 80.084297 97.128 
L 80.084297 2.88 
" clip-path="url(#pf6ca82a75d)" style="fill: none; stroke: #e8e4da; stroke-width: 0.7; stroke-linecap: square"/>
     </g>
     <g id="line2d_2">
      <defs>
       <path id="m1b57556bf1" d="M 0 0 
L 0 3.5 
" style="stroke: #7b8494; stroke-width: 0.8"/>
      </defs>
      <g>
       <use xlink:href="#m1b57556bf1" x="80.084297" y="97.128" style="fill: #7b8494; stroke: #7b8494; stroke-width: 0.8"/>
      </g>
     </g>
     <g id="text_1">
      <!-- 0.0 -->
      <g style="fill: #7b8494" transform="translate(74.801016 112.832) scale(0.085 -0.085)">
       <defs>
        <path id="SourceSans3ExtraLight-Regular-84" d="M 1594 -77 
Q 979 -77 630 476 
Q 282 1030 282 2054 
Q 282 3085 630 3622 
Q 979 4160 1594 4160 
Q 2202 4160 2550 3619 
Q 2899 3078 2899 2054 
Q 2899 1030 2550 476 
Q 2202 -77 1594 -77 
z
M 1594 346 
Q 1830 346 2009 525 
Q 2189 704 2288 1081 
Q 2387 1459 2387 2054 
Q 2387 2656 2288 3027 
Q 2189 3398 2009 3568 
Q 1830 3738 1594 3738 
Q 1350 3738 1171 3568 
Q 992 3398 893 3027 
Q 794 2656 794 2054 
Q 794 1459 893 1081 
Q 992 704 1171 525 
Q 1350 346 1594 346 
z
" transform="scale(0.015625)"/>
        <path id="SourceSans3ExtraLight-Regular-98" d="M 800 -77 
Q 646 -77 531 35 
Q 416 147 416 320 
Q 416 506 531 618 
Q 646 730 800 730 
Q 960 730 1069 618 
Q 1178 506 1178 320 
Q 1178 147 1069 35 
Q 960 -77 800 -77 
z
" transform="scale(0.015625)"/>
       </defs>
       <use xlink:href="#SourceSans3ExtraLight-Regular-84"/>
       <use xlink:href="#SourceSans3ExtraLight-Regular-98" transform="translate(49.703125 0)"/>
       <use xlink:href="#SourceSans3ExtraLight-Regular-84" transform="translate(74.609375 0)"/>
      </g>
     </g>
    </g>
    <g id="xtick_2">
     <g id="line2d_3">
      <path d="M 107.984297 97.128 
L 107.984297 2.88 
" clip-path="url(#pf6ca82a75d)" style="fill: none; stroke: #e8e4da; stroke-width: 0.7; stroke-linecap: square"/>
     </g>
     <g id="line2d_4">
      <g>
       <use xlink:href="#m1b57556bf1" x="107.984297" y="97.128" style="fill: #7b8494; stroke: #7b8494; stroke-width: 0.8"/>
      </g>
     </g>
     <g id="text_2">
      <!-- 0.1 -->
      <g style="fill: #7b8494" transform="translate(102.701016 112.832) scale(0.085 -0.085)">
       <defs>
        <path id="SourceSans3ExtraLight-Regular-85" d="M 506 0 
L 506 435 
L 1440 435 
L 1440 3443 
L 698 3443 
L 698 3782 
Q 973 3834 1184 3907 
Q 1395 3981 1562 4083 
L 1965 4083 
L 1965 435 
L 2810 435 
L 2810 0 
L 506 0 
z
" transform="scale(0.015625)"/>
       </defs>
       <use xlink:href="#SourceSans3ExtraLight-Regular-84"/>
       <use xlink:href="#SourceSans3ExtraLight-Regular-98" transform="translate(49.703125 0)"/>
       <use xlink:href="#SourceSans3ExtraLight-Regular-85" transform="translate(74.609375 0)"/>
      </g>
     </g>
    </g>
    <g id="xtick_3">
     <g id="line2d_5">
      <path d="M 135.884297 97.128 
L 135.884297 2.88 
" clip-path="url(#pf6ca82a75d)" style="fill: none; stroke: #e8e4da; stroke-width: 0.7; stroke-linecap: square"/>
     </g>
     <g id="line2d_6">
      <g>
       <use xlink:href="#m1b57556bf1" x="135.884297" y="97.128" style="fill: #7b8494; stroke: #7b8494; stroke-width: 0.8"/>
      </g>
     </g>
     <g id="text_3">
      <!-- 0.2 -->
      <g style="fill: #7b8494" transform="translate(130.601016 112.832) scale(0.085 -0.085)">
       <defs>
        <path id="SourceSans3ExtraLight-Regular-86" d="M 256 0 
L 256 320 
Q 864 922 1296 1386 
Q 1728 1850 1952 2227 
Q 2176 2605 2176 2931 
Q 2176 3283 1984 3507 
Q 1792 3731 1402 3731 
Q 1146 3731 928 3590 
Q 710 3450 531 3238 
L 237 3526 
Q 493 3814 784 3987 
Q 1075 4160 1466 4160 
Q 1843 4160 2118 4009 
Q 2394 3859 2541 3590 
Q 2688 3322 2688 2963 
Q 2688 2566 2467 2176 
Q 2246 1786 1862 1357 
Q 1478 928 979 416 
Q 1146 435 1325 444 
Q 1504 454 1664 454 
L 2893 454 
L 2893 0 
L 256 0 
z
" transform="scale(0.015625)"/>
       </defs>
       <use xlink:href="#SourceSans3ExtraLight-Regular-84"/>
       <use xlink:href="#SourceSans3ExtraLight-Regular-98" transform="translate(49.703125 0)"/>
       <use xlink:href="#SourceSans3ExtraLight-Regular-86" transform="translate(74.609375 0)"/>
      </g>
     </g>
    </g>
    <g id="xtick_4">
     <g id="line2d_7">
      <path d="M 163.784297 97.128 
L 163.784297 2.88 
" clip-path="url(#pf6ca82a75d)" style="fill: none; stroke: #e8e4da; stroke-width: 0.7; stroke-linecap: square"/>
     </g>
     <g id="line2d_8">
      <g>
       <use xlink:href="#m1b57556bf1" x="163.784297" y="97.128" style="fill: #7b8494; stroke: #7b8494; stroke-width: 0.8"/>
      </g>
     </g>
     <g id="text_4">
      <!-- 0.3 -->
      <g style="fill: #7b8494" transform="translate(158.501016 112.832) scale(0.085 -0.085)">
       <defs>
        <path id="SourceSans3ExtraLight-Regular-87" d="M 1510 -77 
Q 1184 -77 931 6 
Q 678 90 492 218 
Q 307 346 166 499 
L 435 845 
Q 621 653 867 505 
Q 1114 358 1478 358 
Q 1850 358 2086 563 
Q 2323 768 2323 1107 
Q 2323 1350 2198 1532 
Q 2074 1715 1789 1817 
Q 1504 1920 1018 1920 
L 1018 2323 
Q 1453 2323 1705 2425 
Q 1958 2528 2067 2697 
Q 2176 2867 2176 3085 
Q 2176 3386 1987 3558 
Q 1798 3731 1472 3731 
Q 1216 3731 998 3616 
Q 781 3501 602 3315 
L 320 3648 
Q 557 3872 845 4016 
Q 1133 4160 1491 4160 
Q 1850 4160 2125 4038 
Q 2400 3917 2557 3686 
Q 2714 3456 2714 3123 
Q 2714 2752 2509 2515 
Q 2304 2278 1971 2150 
L 1971 2125 
Q 2221 2067 2419 1929 
Q 2618 1792 2736 1581 
Q 2854 1370 2854 1088 
Q 2854 723 2675 464 
Q 2496 205 2189 64 
Q 1882 -77 1510 -77 
z
" transform="scale(0.015625)"/>
       </defs>
       <use xlink:href="#SourceSans3ExtraLight-Regular-84"/>
       <use xlink:href="#SourceSans3ExtraLight-Regular-98" transform="translate(49.703125 0)"/>
       <use xlink:href="#SourceSans3ExtraLight-Regular-87" transform="translate(74.609375 0)"/>
      </g>
     </g>
    </g>
    <g id="xtick_5">
     <g id="line2d_9">
      <path d="M 191.684297 97.128 
L 191.684297 2.88 
" clip-path="url(#pf6ca82a75d)" style="fill: none; stroke: #e8e4da; stroke-width: 0.7; stroke-linecap: square"/>
     </g>
     <g id="line2d_10">
      <g>
       <use xlink:href="#m1b57556bf1" x="191.684297" y="97.128" style="fill: #7b8494; stroke: #7b8494; stroke-width: 0.8"/>
      </g>
     </g>
     <g id="text_5">
      <!-- 0.4 -->
      <g style="fill: #7b8494" transform="translate(186.401016 112.832) scale(0.085 -0.085)">
       <defs>
        <path id="SourceSans3ExtraLight-Regular-88" d="M 1946 0 
L 1946 2733 
Q 1946 2893 1958 3126 
Q 1971 3360 1978 3520 
L 1952 3520 
Q 1875 3373 1792 3235 
Q 1709 3098 1619 2944 
L 666 1549 
L 3002 1549 
L 3002 1126 
L 109 1126 
L 109 1472 
L 1856 4083 
L 2445 4083 
L 2445 0 
L 1946 0 
z
" transform="scale(0.015625)"/>
       </defs>
       <use xlink:href="#SourceSans3ExtraLight-Regular-84"/>
       <use xlink:href="#SourceSans3ExtraLight-Regular-98" transform="translate(49.703125 0)"/>
       <use xlink:href="#SourceSans3ExtraLight-Regular-88" transform="translate(74.609375 0)"/>
      </g>
     </g>
    </g>
    <g id="xtick_6">
     <g id="line2d_11">
      <path d="M 219.584297 97.128 
L 219.584297 2.88 
" clip-path="url(#pf6ca82a75d)" style="fill: none; stroke: #e8e4da; stroke-width: 0.7; stroke-linecap: square"/>
     </g>
     <g id="line2d_12">
      <g>
       <use xlink:href="#m1b57556bf1" x="219.584297" y="97.128" style="fill: #7b8494; stroke: #7b8494; stroke-width: 0.8"/>
      </g>
     </g>
     <g id="text_6">
      <!-- 0.5 -->
      <g style="fill: #7b8494" transform="translate(214.301016 112.832) scale(0.085 -0.085)">
       <defs>
        <path id="SourceSans3ExtraLight-Regular-89" d="M 1498 -77 
Q 1171 -77 921 3 
Q 672 83 486 211 
Q 301 339 160 480 
L 416 826 
Q 602 646 845 502 
Q 1088 358 1446 358 
Q 1696 358 1897 473 
Q 2099 589 2220 797 
Q 2342 1005 2342 1293 
Q 2342 1715 2105 1952 
Q 1869 2189 1472 2189 
Q 1267 2189 1113 2125 
Q 960 2061 774 1939 
L 493 2118 
L 627 4083 
L 2669 4083 
L 2669 3629 
L 1088 3629 
L 979 2419 
Q 1126 2496 1273 2541 
Q 1421 2586 1606 2586 
Q 1958 2586 2246 2451 
Q 2534 2317 2704 2032 
Q 2874 1747 2874 1306 
Q 2874 864 2678 553 
Q 2483 243 2169 83 
Q 1856 -77 1498 -77 
z
" transform="scale(0.015625)"/>
       </defs>
       <use xlink:href="#SourceSans3ExtraLight-Regular-84"/>
       <use xlink:href="#SourceSans3ExtraLight-Regular-98" transform="translate(49.703125 0)"/>
       <use xlink:href="#SourceSans3ExtraLight-Regular-89" transform="translate(74.609375 0)"/>
      </g>
     </g>
    </g>
    <g id="xtick_7">
     <g id="line2d_13">
      <path d="M 247.484297 97.128 
L 247.484297 2.88 
" clip-path="url(#pf6ca82a75d)" style="fill: none; stroke: #e8e4da; stroke-width: 0.7; stroke-linecap: square"/>
     </g>
     <g id="line2d_14">
      <g>
       <use xlink:href="#m1b57556bf1" x="247.484297" y="97.128" style="fill: #7b8494; stroke: #7b8494; stroke-width: 0.8"/>
      </g>
     </g>
     <g id="text_7">
      <!-- 0.6 -->
      <g style="fill: #7b8494" transform="translate(242.201016 112.832) scale(0.085 -0.085)">
       <defs>
        <path id="SourceSans3ExtraLight-Regular-8a" d="M 1715 -77 
Q 1414 -77 1158 44 
Q 902 166 713 412 
Q 525 659 416 1027 
Q 307 1395 307 1888 
Q 307 2502 435 2934 
Q 563 3366 780 3635 
Q 998 3904 1276 4032 
Q 1555 4160 1862 4160 
Q 2195 4160 2435 4035 
Q 2675 3910 2848 3725 
L 2554 3398 
Q 2432 3546 2253 3632 
Q 2074 3718 1882 3718 
Q 1594 3718 1347 3545 
Q 1101 3373 953 2973 
Q 806 2573 806 1888 
Q 806 1382 912 1036 
Q 1018 691 1222 515 
Q 1427 339 1715 339 
Q 1914 339 2077 451 
Q 2240 563 2333 764 
Q 2426 966 2426 1235 
Q 2426 1498 2342 1693 
Q 2259 1888 2092 1993 
Q 1926 2099 1670 2099 
Q 1472 2099 1238 1968 
Q 1005 1837 794 1523 
L 774 1939 
Q 973 2195 1235 2345 
Q 1498 2496 1760 2496 
Q 2112 2496 2374 2355 
Q 2637 2214 2781 1932 
Q 2925 1651 2925 1235 
Q 2925 845 2758 550 
Q 2592 256 2317 89 
Q 2042 -77 1715 -77 
z
" transform="scale(0.015625)"/>
       </defs>
       <use xlink:href="#SourceSans3ExtraLight-Regular-84"/>
       <use xlink:href="#SourceSans3ExtraLight-Regular-98" transform="translate(49.703125 0)"/>
       <use xlink:href="#SourceSans3ExtraLight-Regular-8a" transform="translate(74.609375 0)"/>
      </g>
     </g>
    </g>
    <g id="text_8">
     <!-- Share of total importance -->
     <g style="fill: #4a5568" transform="translate(123.102891 129.448) scale(0.09 -0.09)">
      <defs>
       <path id="SourceSans3ExtraLight-Regular-14" d="M 1741 -77 
Q 1293 -77 921 92 
Q 550 262 269 550 
L 570 896 
Q 794 659 1104 524 
Q 1414 390 1747 390 
Q 2163 390 2393 579 
Q 2624 768 2624 1075 
Q 2624 1293 2531 1421 
Q 2438 1549 2281 1638 
Q 2125 1728 1926 1818 
L 1325 2080 
Q 1120 2170 925 2304 
Q 730 2438 602 2646 
Q 474 2854 474 3162 
Q 474 3482 643 3734 
Q 813 3987 1110 4131 
Q 1408 4275 1792 4275 
Q 2176 4275 2496 4134 
Q 2816 3994 3034 3770 
L 2746 3424 
Q 2547 3597 2310 3702 
Q 2074 3808 1792 3808 
Q 1440 3808 1225 3641 
Q 1011 3475 1011 3194 
Q 1011 2995 1113 2867 
Q 1216 2739 1379 2656 
Q 1542 2573 1709 2496 
L 2304 2240 
Q 2554 2131 2749 1990 
Q 2944 1850 3056 1638 
Q 3168 1427 3168 1120 
Q 3168 787 2998 515 
Q 2829 243 2505 83 
Q 2182 -77 1741 -77 
z
" transform="scale(0.015625)"/>
       <path id="SourceSans3ExtraLight-Regular-23" d="M 525 0 
L 525 4557 
L 1050 4557 
L 1050 3315 
L 1030 2675 
Q 1254 2886 1500 3036 
Q 1747 3187 2067 3187 
Q 2560 3187 2787 2876 
Q 3014 2566 3014 1971 
L 3014 0 
L 2490 0 
L 2490 1901 
Q 2490 2342 2352 2537 
Q 2214 2733 1901 2733 
Q 1664 2733 1475 2611 
Q 1286 2490 1050 2253 
L 1050 0 
L 525 0 
z
" transform="scale(0.015625)"/>
       <path id="SourceSans3ExtraLight-Regular-1c" d="M 1242 -77 
Q 986 -77 778 28 
Q 570 134 448 329 
Q 326 525 326 806 
Q 326 1331 787 1600 
Q 1248 1869 2246 1978 
Q 2240 2170 2185 2349 
Q 2131 2528 1990 2637 
Q 1850 2746 1600 2746 
Q 1331 2746 1094 2646 
Q 858 2547 672 2426 
L 467 2784 
Q 608 2880 800 2973 
Q 992 3066 1216 3126 
Q 1440 3187 1690 3187 
Q 2067 3187 2307 3030 
Q 2547 2874 2659 2586 
Q 2771 2298 2771 1907 
L 2771 0 
L 2336 0 
L 2291 371 
L 2272 371 
Q 2048 186 1792 54 
Q 1536 -77 1242 -77 
z
M 1389 358 
Q 1619 358 1820 460 
Q 2022 563 2246 762 
L 2246 1600 
Q 1722 1536 1418 1437 
Q 1114 1338 979 1190 
Q 845 1043 845 838 
Q 845 582 1005 470 
Q 1165 358 1389 358 
z
" transform="scale(0.015625)"/>
       <path id="SourceSans3ExtraLight-Regular-2d" d="M 525 0 
L 525 3110 
L 960 3110 
L 1005 2547 
L 1024 2547 
Q 1178 2842 1408 3014 
Q 1638 3187 1907 3187 
Q 2010 3187 2086 3174 
Q 2163 3162 2240 3123 
L 2125 2675 
Q 2054 2694 1993 2704 
Q 1933 2714 1837 2714 
Q 1638 2714 1424 2554 
Q 1210 2394 1050 1997 
L 1050 0 
L 525 0 
z
" transform="scale(0.015625)"/>
       <path id="SourceSans3ExtraLight-Regular-20" d="M 1786 -77 
Q 1370 -77 1027 118 
Q 685 314 486 675 
Q 288 1037 288 1555 
Q 288 2061 493 2425 
Q 698 2790 1018 2988 
Q 1338 3187 1696 3187 
Q 2093 3187 2371 3004 
Q 2650 2822 2790 2496 
Q 2931 2170 2931 1728 
Q 2931 1645 2928 1568 
Q 2925 1491 2906 1414 
L 666 1414 
L 666 1830 
L 2458 1830 
Q 2458 2278 2262 2518 
Q 2067 2758 1702 2758 
Q 1491 2758 1286 2640 
Q 1082 2522 950 2259 
Q 819 1997 819 1562 
Q 819 1165 956 896 
Q 1094 627 1331 489 
Q 1568 352 1850 352 
Q 2074 352 2269 416 
Q 2464 480 2624 589 
L 2816 243 
Q 2611 102 2358 12 
Q 2106 -77 1786 -77 
z
" transform="scale(0.015625)"/>
       <path id="SourceSans3ExtraLight-Regular-1" transform="scale(0.015625)"/>
       <path id="SourceSans3ExtraLight-Regular-2a" d="M 1734 -77 
Q 1357 -77 1027 115 
Q 698 307 496 672 
Q 294 1037 294 1549 
Q 294 2074 496 2438 
Q 698 2803 1027 2995 
Q 1357 3187 1734 3187 
Q 2118 3187 2444 2995 
Q 2771 2803 2972 2438 
Q 3174 2074 3174 1549 
Q 3174 1037 2972 672 
Q 2771 307 2444 115 
Q 2118 -77 1734 -77 
z
M 1734 358 
Q 2003 358 2208 508 
Q 2413 659 2521 928 
Q 2630 1197 2630 1549 
Q 2630 1907 2521 2179 
Q 2413 2451 2208 2601 
Q 2003 2752 1734 2752 
Q 1466 2752 1264 2601 
Q 1062 2451 950 2179 
Q 838 1907 838 1549 
Q 838 1197 950 928 
Q 1062 659 1264 508 
Q 1466 358 1734 358 
z
" transform="scale(0.015625)"/>
       <path id="SourceSans3ExtraLight-Regular-21" d="M 614 0 
L 614 3603 
Q 614 3917 710 4150 
Q 806 4384 1008 4509 
Q 1210 4634 1523 4634 
Q 1664 4634 1801 4605 
Q 1939 4576 2042 4531 
L 1926 4147 
Q 1741 4205 1574 4205 
Q 1357 4205 1248 4054 
Q 1139 3904 1139 3603 
L 1139 0 
L 614 0 
z
M 154 2682 
L 154 3078 
L 640 3110 
L 1798 3110 
L 1798 2682 
L 154 2682 
z
" transform="scale(0.015625)"/>
       <path id="SourceSans3ExtraLight-Regular-2f" d="M 1504 -58 
Q 1011 -58 812 230 
Q 614 518 614 979 
L 614 2682 
L 154 2682 
L 154 3078 
L 640 3110 
L 704 4109 
L 1146 4109 
L 1146 3110 
L 1990 3110 
L 1990 2682 
L 1146 2682 
L 1146 973 
Q 1146 691 1251 531 
Q 1357 371 1626 371 
Q 1709 371 1798 387 
Q 1888 403 1978 448 
L 2093 77 
Q 1971 19 1817 -19 
Q 1664 -58 1504 -58 
z
" transform="scale(0.015625)"/>
       <path id="SourceSans3ExtraLight-Regular-27" d="M 1082 -58 
Q 883 -58 761 22 
Q 640 102 582 259 
Q 525 416 525 640 
L 525 4557 
L 1050 4557 
L 1050 602 
Q 1050 474 1094 426 
Q 1139 378 1203 378 
Q 1229 378 1251 381 
Q 1274 384 1312 390 
L 1389 -6 
Q 1331 -26 1257 -42 
Q 1184 -58 1082 -58 
z
" transform="scale(0.015625)"/>
       <path id="SourceSans3ExtraLight-Regular-24" d="M 525 0 
L 525 3110 
L 1050 3110 
L 1050 0 
L 525 0 
z
M 787 3750 
Q 633 3750 534 3846 
Q 435 3942 435 4096 
Q 435 4250 534 4346 
Q 633 4442 787 4442 
Q 941 4442 1040 4346 
Q 1139 4250 1139 4096 
Q 1139 3942 1040 3846 
Q 941 3750 787 3750 
z
" transform="scale(0.015625)"/>
       <path id="SourceSans3ExtraLight-Regular-28" d="M 525 0 
L 525 3110 
L 960 3110 
L 1005 2662 
L 1024 2662 
Q 1229 2880 1469 3033 
Q 1709 3187 1990 3187 
Q 2349 3187 2550 3027 
Q 2752 2867 2848 2592 
Q 3091 2861 3340 3024 
Q 3590 3187 3872 3187 
Q 4358 3187 4588 2876 
Q 4819 2566 4819 1971 
L 4819 0 
L 4294 0 
L 4294 1901 
Q 4294 2342 4153 2537 
Q 4013 2733 3718 2733 
Q 3533 2733 3344 2614 
Q 3155 2496 2938 2253 
L 2938 0 
L 2413 0 
L 2413 1901 
Q 2413 2342 2272 2537 
Q 2131 2733 1830 2733 
Q 1478 2733 1050 2253 
L 1050 0 
L 525 0 
z
" transform="scale(0.015625)"/>
       <path id="SourceSans3ExtraLight-Regular-2b" d="M 525 -1312 
L 525 3110 
L 960 3110 
L 1005 2752 
L 1024 2752 
Q 1235 2931 1491 3059 
Q 1747 3187 2016 3187 
Q 2413 3187 2688 2992 
Q 2963 2797 3104 2441 
Q 3245 2086 3245 1600 
Q 3245 1075 3056 697 
Q 2867 320 2560 121 
Q 2253 -77 1901 -77 
Q 1690 -77 1472 19 
Q 1254 115 1037 282 
L 1050 -262 
L 1050 -1312 
L 525 -1312 
z
M 1811 365 
Q 2067 365 2268 512 
Q 2470 659 2585 937 
Q 2701 1216 2701 1600 
Q 2701 1939 2617 2198 
Q 2534 2458 2355 2602 
Q 2176 2746 1882 2746 
Q 1690 2746 1485 2640 
Q 1280 2534 1050 2323 
L 1050 691 
Q 1267 512 1462 438 
Q 1658 365 1811 365 
z
" transform="scale(0.015625)"/>
       <path id="SourceSans3ExtraLight-Regular-29" d="M 525 0 
L 525 3110 
L 960 3110 
L 1005 2662 
L 1024 2662 
Q 1248 2886 1497 3036 
Q 1747 3187 2067 3187 
Q 2560 3187 2787 2876 
Q 3014 2566 3014 1971 
L 3014 0 
L 2490 0 
L 2490 1901 
Q 2490 2342 2352 2537 
Q 2214 2733 1901 2733 
Q 1664 2733 1475 2611 
Q 1286 2490 1050 2253 
L 1050 0 
L 525 0 
z
" transform="scale(0.015625)"/>
       <path id="SourceSans3ExtraLight-Regular-1e" d="M 1760 -77 
Q 1344 -77 1011 115 
Q 678 307 486 672 
Q 294 1037 294 1549 
Q 294 2074 502 2438 
Q 710 2803 1052 2995 
Q 1395 3187 1792 3187 
Q 2099 3187 2320 3084 
Q 2541 2982 2701 2822 
L 2438 2496 
Q 2323 2611 2166 2678 
Q 2010 2746 1811 2746 
Q 1536 2746 1315 2595 
Q 1094 2445 966 2176 
Q 838 1907 838 1549 
Q 838 1197 960 928 
Q 1082 659 1299 508 
Q 1517 358 1805 358 
Q 2022 358 2208 441 
Q 2394 525 2528 653 
L 2758 333 
Q 2560 147 2310 35 
Q 2061 -77 1760 -77 
z
" transform="scale(0.015625)"/>
      </defs>
      <use xlink:href="#SourceSans3ExtraLight-Regular-14"/>
      <use xlink:href="#SourceSans3ExtraLight-Regular-23" transform="translate(53.40625 0)"/>
      <use xlink:href="#SourceSans3ExtraLight-Regular-1c" transform="translate(107.8125 0)"/>
      <use xlink:href="#SourceSans3ExtraLight-Regular-2d" transform="translate(158.21875 0)"/>
      <use xlink:href="#SourceSans3ExtraLight-Regular-20" transform="translate(191.921875 0)"/>
      <use xlink:href="#SourceSans3ExtraLight-Regular-1" transform="translate(241.515625 0)"/>
      <use xlink:href="#SourceSans3ExtraLight-Regular-2a" transform="translate(261.515625 0)"/>
      <use xlink:href="#SourceSans3ExtraLight-Regular-21" transform="translate(315.515625 0)"/>
      <use xlink:href="#SourceSans3ExtraLight-Regular-1" transform="translate(344.71875 0)"/>
      <use xlink:href="#SourceSans3ExtraLight-Regular-2f" transform="translate(364.71875 0)"/>
      <use xlink:href="#SourceSans3ExtraLight-Regular-2a" transform="translate(397.109375 0)"/>
      <use xlink:href="#SourceSans3ExtraLight-Regular-2f" transform="translate(449.609375 0)"/>
      <use xlink:href="#SourceSans3ExtraLight-Regular-1c" transform="translate(481.3125 0)"/>
      <use xlink:href="#SourceSans3ExtraLight-Regular-27" transform="translate(531.71875 0)"/>
      <use xlink:href="#SourceSans3ExtraLight-Regular-1" transform="translate(557.21875 0)"/>
      <use xlink:href="#SourceSans3ExtraLight-Regular-24" transform="translate(577.21875 0)"/>
      <use xlink:href="#SourceSans3ExtraLight-Regular-28" transform="translate(601.8125 0)"/>
      <use xlink:href="#SourceSans3ExtraLight-Regular-2b" transform="translate(684.71875 0)"/>
      <use xlink:href="#SourceSans3ExtraLight-Regular-2a" transform="translate(740.21875 0)"/>
      <use xlink:href="#SourceSans3ExtraLight-Regular-2d" transform="translate(794.421875 0)"/>
      <use xlink:href="#SourceSans3ExtraLight-Regular-2f" transform="translate(829.125 0)"/>
      <use xlink:href="#SourceSans3ExtraLight-Regular-1c" transform="translate(860.828125 0)"/>
      <use xlink:href="#SourceSans3ExtraLight-Regular-29" transform="translate(911.234375 0)"/>
      <use xlink:href="#SourceSans3ExtraLight-Regular-1e" transform="translate(965.9375 0)"/>
      <use xlink:href="#SourceSans3ExtraLight-Regular-20" transform="translate(1009.4375 0)"/>
     </g>
    </g>
   </g>
   <g id="matplotlib.axis_2">
    <g id="ytick_1">
     <g id="line2d_15"/>
     <g id="text_9">
      <!-- ln(GDP per capita) -->
      <g style="fill: #4a5568" transform="translate(12.188828 87.309846) scale(0.085 -0.085)">
       <defs>
        <path id="SourceSans3ExtraLight-Regular-b3" d="M 1370 -1126 
Q 973 -480 749 227 
Q 525 934 525 1779 
Q 525 2624 749 3334 
Q 973 4045 1370 4685 
L 1696 4531 
Q 1325 3923 1142 3216 
Q 960 2509 960 1779 
Q 960 1050 1142 346 
Q 1325 -358 1696 -973 
L 1370 -1126 
z
" transform="scale(0.015625)"/>
        <path id="SourceSans3ExtraLight-Regular-8" d="M 2227 -77 
Q 1670 -77 1244 182 
Q 819 442 576 928 
Q 333 1414 333 2099 
Q 333 2605 477 3008 
Q 621 3411 880 3696 
Q 1139 3981 1491 4128 
Q 1843 4275 2259 4275 
Q 2694 4275 2992 4115 
Q 3290 3955 3469 3757 
L 3174 3424 
Q 3021 3590 2806 3699 
Q 2592 3808 2272 3808 
Q 1850 3808 1536 3600 
Q 1222 3392 1052 3014 
Q 883 2637 883 2112 
Q 883 1581 1046 1197 
Q 1210 813 1520 601 
Q 1830 390 2278 390 
Q 2502 390 2707 457 
Q 2912 525 3034 640 
L 3034 1734 
L 2144 1734 
L 2144 2176 
L 3520 2176 
L 3520 410 
Q 3322 198 2986 60 
Q 2650 -77 2227 -77 
z
" transform="scale(0.015625)"/>
        <path id="SourceSans3ExtraLight-Regular-5" d="M 576 0 
L 576 4198 
L 1626 4198 
Q 2272 4198 2713 3955 
Q 3155 3712 3382 3248 
Q 3610 2784 3610 2118 
Q 3610 1453 3382 976 
Q 3155 499 2720 249 
Q 2285 0 1651 0 
L 576 0 
z
M 1107 435 
L 1587 435 
Q 2080 435 2406 636 
Q 2733 838 2893 1209 
Q 3053 1581 3053 2118 
Q 3053 2643 2893 3014 
Q 2733 3386 2406 3574 
Q 2080 3763 1587 3763 
L 1107 3763 
L 1107 435 
z
" transform="scale(0.015625)"/>
        <path id="SourceSans3ExtraLight-Regular-11" d="M 576 0 
L 576 4198 
L 1773 4198 
Q 2246 4198 2598 4080 
Q 2950 3962 3148 3693 
Q 3347 3424 3347 2963 
Q 3347 2522 3152 2237 
Q 2957 1952 2608 1808 
Q 2259 1664 1798 1664 
L 1107 1664 
L 1107 0 
L 576 0 
z
M 1107 2099 
L 1734 2099 
Q 2285 2099 2550 2310 
Q 2816 2522 2816 2963 
Q 2816 3418 2537 3594 
Q 2259 3770 1709 3770 
L 1107 3770 
L 1107 2099 
z
" transform="scale(0.015625)"/>
        <path id="SourceSans3ExtraLight-Regular-b4" d="M 570 -1126 
L 243 -973 
Q 614 -358 796 346 
Q 979 1050 979 1779 
Q 979 2509 796 3216 
Q 614 3923 243 4531 
L 570 4685 
Q 973 4045 1193 3334 
Q 1414 2624 1414 1779 
Q 1414 934 1193 227 
Q 973 -480 570 -1126 
z
" transform="scale(0.015625)"/>
       </defs>
       <use xlink:href="#SourceSans3ExtraLight-Regular-27"/>
       <use xlink:href="#SourceSans3ExtraLight-Regular-29" transform="translate(25.5 0)"/>
       <use xlink:href="#SourceSans3ExtraLight-Regular-b3" transform="translate(80.203125 0)"/>
       <use xlink:href="#SourceSans3ExtraLight-Regular-8" transform="translate(110.5 0)"/>
       <use xlink:href="#SourceSans3ExtraLight-Regular-5" transform="translate(172.203125 0)"/>
       <use xlink:href="#SourceSans3ExtraLight-Regular-11" transform="translate(233.703125 0)"/>
       <use xlink:href="#SourceSans3ExtraLight-Regular-1" transform="translate(290.296875 0)"/>
       <use xlink:href="#SourceSans3ExtraLight-Regular-2b" transform="translate(310.296875 0)"/>
       <use xlink:href="#SourceSans3ExtraLight-Regular-20" transform="translate(365.796875 0)"/>
       <use xlink:href="#SourceSans3ExtraLight-Regular-2d" transform="translate(415.390625 0)"/>
       <use xlink:href="#SourceSans3ExtraLight-Regular-1" transform="translate(450.09375 0)"/>
       <use xlink:href="#SourceSans3ExtraLight-Regular-1e" transform="translate(470.09375 0)"/>
       <use xlink:href="#SourceSans3ExtraLight-Regular-1c" transform="translate(514.6875 0)"/>
       <use xlink:href="#SourceSans3ExtraLight-Regular-2b" transform="translate(565.09375 0)"/>
       <use xlink:href="#SourceSans3ExtraLight-Regular-24" transform="translate(620.59375 0)"/>
       <use xlink:href="#SourceSans3ExtraLight-Regular-2f" transform="translate(645.1875 0)"/>
       <use xlink:href="#SourceSans3ExtraLight-Regular-1c" transform="translate(676.890625 0)"/>
       <use xlink:href="#SourceSans3ExtraLight-Regular-b4" transform="translate(727.296875 0)"/>
      </g>
     </g>
    </g>
    <g id="ytick_2">
     <g id="line2d_16"/>
     <g id="text_10">
      <!-- ln(Energy per capita) -->
      <g style="fill: #4a5568" transform="translate(2.88 54.356) scale(0.085 -0.085)">
       <defs>
        <path id="SourceSans3ExtraLight-Regular-6" d="M 576 0 
L 576 4198 
L 2995 4198 
L 2995 3750 
L 1107 3750 
L 1107 2432 
L 2701 2432 
L 2701 1978 
L 1107 1978 
L 1107 454 
L 3059 454 
L 3059 0 
L 576 0 
z
" transform="scale(0.015625)"/>
        <path id="SourceSans3ExtraLight-Regular-22" d="M 1574 -1434 
Q 1197 -1434 905 -1334 
Q 614 -1235 451 -1049 
Q 288 -864 288 -595 
Q 288 -397 409 -214 
Q 531 -32 742 109 
L 742 134 
Q 627 211 547 336 
Q 467 461 467 640 
Q 467 838 579 985 
Q 691 1133 806 1216 
L 806 1242 
Q 659 1370 531 1587 
Q 403 1805 403 2080 
Q 403 2419 566 2668 
Q 730 2918 995 3052 
Q 1261 3187 1574 3187 
Q 1702 3187 1817 3164 
Q 1933 3142 2016 3110 
L 3098 3110 
L 3098 2707 
L 2451 2707 
L 2451 2682 
Q 2566 2579 2640 2425 
Q 2714 2272 2714 2061 
Q 2714 1728 2560 1488 
Q 2406 1248 2150 1117 
Q 1894 986 1574 986 
Q 1459 986 1337 1014 
Q 1216 1043 1107 1094 
Q 1030 1024 969 941 
Q 909 858 909 723 
Q 909 576 1027 480 
Q 1146 384 1459 384 
L 2061 384 
Q 2605 384 2877 208 
Q 3149 32 3149 -358 
Q 3149 -646 2957 -889 
Q 2765 -1133 2409 -1283 
Q 2054 -1434 1574 -1434 
z
M 1574 1338 
Q 1754 1338 1904 1430 
Q 2054 1523 2144 1689 
Q 2234 1856 2234 2080 
Q 2234 2426 2042 2614 
Q 1850 2803 1574 2803 
Q 1299 2803 1107 2614 
Q 915 2426 915 2080 
Q 915 1856 1004 1689 
Q 1094 1523 1244 1430 
Q 1395 1338 1574 1338 
z
M 1651 -1069 
Q 1946 -1069 2166 -979 
Q 2387 -890 2512 -742 
Q 2637 -595 2637 -435 
Q 2637 -218 2473 -134 
Q 2310 -51 2010 -51 
L 1472 -51 
Q 1382 -51 1276 -38 
Q 1171 -26 1069 0 
Q 896 -122 822 -256 
Q 749 -390 749 -525 
Q 749 -774 989 -921 
Q 1229 -1069 1651 -1069 
z
" transform="scale(0.015625)"/>
        <path id="SourceSans3ExtraLight-Regular-34" d="M 576 -1338 
Q 474 -1338 381 -1318 
Q 288 -1299 211 -1274 
L 326 -864 
Q 384 -883 441 -892 
Q 499 -902 550 -902 
Q 819 -902 988 -713 
Q 1158 -525 1254 -237 
L 1325 -6 
L 77 3110 
L 621 3110 
L 1254 1389 
Q 1331 1190 1408 960 
Q 1485 730 1555 512 
L 1581 512 
Q 1651 730 1718 957 
Q 1786 1184 1843 1389 
L 2400 3110 
L 2912 3110 
L 1741 -256 
Q 1632 -563 1478 -809 
Q 1325 -1056 1107 -1197 
Q 890 -1338 576 -1338 
z
" transform="scale(0.015625)"/>
       </defs>
       <use xlink:href="#SourceSans3ExtraLight-Regular-27"/>
       <use xlink:href="#SourceSans3ExtraLight-Regular-29" transform="translate(25.5 0)"/>
       <use xlink:href="#SourceSans3ExtraLight-Regular-b3" transform="translate(80.203125 0)"/>
       <use xlink:href="#SourceSans3ExtraLight-Regular-6" transform="translate(110.5 0)"/>
       <use xlink:href="#SourceSans3ExtraLight-Regular-29" transform="translate(163.203125 0)"/>
       <use xlink:href="#SourceSans3ExtraLight-Regular-20" transform="translate(217.90625 0)"/>
       <use xlink:href="#SourceSans3ExtraLight-Regular-2d" transform="translate(267.5 0)"/>
       <use xlink:href="#SourceSans3ExtraLight-Regular-22" transform="translate(301.203125 0)"/>
       <use xlink:href="#SourceSans3ExtraLight-Regular-34" transform="translate(353.109375 0)"/>
       <use xlink:href="#SourceSans3ExtraLight-Regular-1" transform="translate(399.8125 0)"/>
       <use xlink:href="#SourceSans3ExtraLight-Regular-2b" transform="translate(419.8125 0)"/>
       <use xlink:href="#SourceSans3ExtraLight-Regular-20" transform="translate(475.3125 0)"/>
       <use xlink:href="#SourceSans3ExtraLight-Regular-2d" transform="translate(524.90625 0)"/>
       <use xlink:href="#SourceSans3ExtraLight-Regular-1" transform="translate(559.609375 0)"/>
       <use xlink:href="#SourceSans3ExtraLight-Regular-1e" transform="translate(579.609375 0)"/>
       <use xlink:href="#SourceSans3ExtraLight-Regular-1c" transform="translate(624.203125 0)"/>
       <use xlink:href="#SourceSans3ExtraLight-Regular-2b" transform="translate(674.609375 0)"/>
       <use xlink:href="#SourceSans3ExtraLight-Regular-24" transform="translate(730.109375 0)"/>
       <use xlink:href="#SourceSans3ExtraLight-Regular-2f" transform="translate(754.703125 0)"/>
       <use xlink:href="#SourceSans3ExtraLight-Regular-1c" transform="translate(786.40625 0)"/>
       <use xlink:href="#SourceSans3ExtraLight-Regular-b4" transform="translate(836.8125 0)"/>
      </g>
     </g>
    </g>
    <g id="ytick_3">
     <g id="line2d_17"/>
     <g id="text_11">
      <!-- ln(Population) -->
      <g style="fill: #4a5568" transform="translate(25.508594 21.402154) scale(0.085 -0.085)">
       <defs>
        <path id="SourceSans3ExtraLight-Regular-30" d="M 1434 -77 
Q 941 -77 713 233 
Q 486 544 486 1139 
L 486 3110 
L 1011 3110 
L 1011 1210 
Q 1011 774 1148 579 
Q 1286 384 1594 384 
Q 1830 384 2019 509 
Q 2208 634 2432 902 
L 2432 3110 
L 2957 3110 
L 2957 0 
L 2522 0 
L 2477 486 
L 2458 486 
Q 2246 230 2000 76 
Q 1754 -77 1434 -77 
z
" transform="scale(0.015625)"/>
       </defs>
       <use xlink:href="#SourceSans3ExtraLight-Regular-27"/>
       <use xlink:href="#SourceSans3ExtraLight-Regular-29" transform="translate(25.5 0)"/>
       <use xlink:href="#SourceSans3ExtraLight-Regular-b3" transform="translate(80.203125 0)"/>
       <use xlink:href="#SourceSans3ExtraLight-Regular-11" transform="translate(110.5 0)"/>
       <use xlink:href="#SourceSans3ExtraLight-Regular-2a" transform="translate(164.6875 0)"/>
       <use xlink:href="#SourceSans3ExtraLight-Regular-2b" transform="translate(218.890625 0)"/>
       <use xlink:href="#SourceSans3ExtraLight-Regular-30" transform="translate(274.390625 0)"/>
       <use xlink:href="#SourceSans3ExtraLight-Regular-27" transform="translate(328.796875 0)"/>
       <use xlink:href="#SourceSans3ExtraLight-Regular-1c" transform="translate(354.296875 0)"/>
       <use xlink:href="#SourceSans3ExtraLight-Regular-2f" transform="translate(403.296875 0)"/>
       <use xlink:href="#SourceSans3ExtraLight-Regular-24" transform="translate(437.09375 0)"/>
       <use xlink:href="#SourceSans3ExtraLight-Regular-2a" transform="translate(461.6875 0)"/>
       <use xlink:href="#SourceSans3ExtraLight-Regular-29" transform="translate(515.890625 0)"/>
       <use xlink:href="#SourceSans3ExtraLight-Regular-b4" transform="translate(570.59375 0)"/>
      </g>
     </g>
    </g>
   </g>
   <g id="patch_3">
    <path d="M 80.084297 92.844 
L 94.070666 92.844 
L 94.070666 73.071692 
L 80.084297 73.071692 
z
" clip-path="url(#pf6ca82a75d)" style="fill: #cdc7ba"/>
   </g>
   <g id="patch_4">
    <path d="M 80.084297 59.890154 
L 197.499758 59.890154 
L 197.499758 40.117846 
L 80.084297 40.117846 
z
" clip-path="url(#pf6ca82a75d)" style="fill: #6b4e9b"/>
   </g>
   <g id="patch_5">
    <path d="M 80.084297 26.936308 
L 227.682466 26.936308 
L 227.682466 7.164 
L 80.084297 7.164 
z
" clip-path="url(#pf6ca82a75d)" style="fill: #6b4e9b"/>
   </g>
   <g id="patch_6">
    <path d="M 80.084297 97.128 
L 261.434297 97.128 
" style="fill: none; stroke: #e8e4da; stroke-width: 0.8; stroke-linejoin: miter; stroke-linecap: square"/>
   </g>
   <g id="text_12">
    <!-- 0.05 -->
    <g style="fill: #12263f" transform="translate(96.860666 85.453846) scale(0.08 -0.08)">
     <use xlink:href="#SourceSans3ExtraLight-Regular-84"/>
     <use xlink:href="#SourceSans3ExtraLight-Regular-98" transform="translate(49.703125 0)"/>
     <use xlink:href="#SourceSans3ExtraLight-Regular-84" transform="translate(74.609375 0)"/>
     <use xlink:href="#SourceSans3ExtraLight-Regular-89" transform="translate(124.3125 0)"/>
    </g>
   </g>
   <g id="text_13">
    <!-- 0.42 -->
    <g style="fill: #12263f" transform="translate(200.289758 52.5) scale(0.08 -0.08)">
     <use xlink:href="#SourceSans3ExtraLight-Regular-84"/>
     <use xlink:href="#SourceSans3ExtraLight-Regular-98" transform="translate(49.703125 0)"/>
     <use xlink:href="#SourceSans3ExtraLight-Regular-88" transform="translate(74.609375 0)"/>
     <use xlink:href="#SourceSans3ExtraLight-Regular-86" transform="translate(124.3125 0)"/>
    </g>
   </g>
   <g id="text_14">
    <!-- 0.53 -->
    <g style="fill: #12263f" transform="translate(230.472466 19.546154) scale(0.08 -0.08)">
     <use xlink:href="#SourceSans3ExtraLight-Regular-84"/>
     <use xlink:href="#SourceSans3ExtraLight-Regular-98" transform="translate(49.703125 0)"/>
     <use xlink:href="#SourceSans3ExtraLight-Regular-89" transform="translate(74.609375 0)"/>
     <use xlink:href="#SourceSans3ExtraLight-Regular-87" transform="translate(124.3125 0)"/>
    </g>
   </g>
  </g>
 </g>
 <defs>
  <clipPath id="pf6ca82a75d">
   <rect x="80.084297" y="2.88" width="181.35" height="94.248"/>
  </clipPath>
 </defs>
</svg>
